<svg xmlns="http://www.w3.org/2000/svg" viewBox="0 0 2411.18 2219.19"><path fill="#fff" d="M46.58,13.18c-6.73,1.47-12.83,6.14-15.49,13.9C10.06,88.24-8.29,195.77,67.12,296.77c0,0-152.51,164.63,86.42,243.52,0,0-128.28,43.74-49.49,136.55,50.53,59.51,144.6,15.75,223.69,19.38,0,0-155.5,35.16-98.85,117.59,56.65,82.43,244.58,64.42,244.58,64.42,0,0,203.35,154.68,359.17,47.91,16.52-11.32,32.51-25.58,47.65-43.28,104.75-122.33,71.91-401.71-341.51-501.93C228.37,305.68,110.39,115.57,70.85,25.49c-4.53-10.32-15.02-14.33-24.28-12.3Z"/><path fill="#090c9b" d="M870.64,874.6c66.06-77.28,58.69-195.74,3.84-277.51-55.78-86.08-148.71-140.57-243.43-175.24-28.19-10.29-57.04-18.96-86.15-26.32-72.99-17.23-144.39-42.3-210.55-77.98C224.87,258.89,130.13,170.03,72.8,59c-4.79-9.29-9.32-18.75-13.54-28.34-1.18-2.76-3.49-4.77-6.61-5.19-3.56-.49-7.24.99-8.92,4.26-19.35,54.17-24.71,114.72-9.9,170.47,8.44,32.17,23.54,62.31,43.46,88.96,3.72,4.99,3.22,11.83-.86,16.23,0,0-1.33,1.63-1.33,1.63-3.47,4.32-6.78,8.79-9.92,13.37-23.74,34.66-42.46,79.67-26.48,120.98,11.27,29.04,37.07,50.32,63.73,65.76,17.54,9.95,35.43,18.72,51.88,30.79,0,0,1.38,1.03,1.38,1.03,1.65,1.19.6,3.83-1.36,3.68-12.75,11.22-25.84,21.32-37.65,32.72-10.14,9.6-19.77,21.39-23.19,34.81-5.61,21.56,5.71,43.65,19.29,60.25,26.64,33.03,72.52,30.18,111.24,27.16,34.12-2.72,69.48-7.87,103.73-1.86,0,0,.13.02.13.02.26.05.43.29.38.55-.04.22-.22.37-.43.39-25.6,11.04-50.7,21.83-73.25,37.6-32.95,23.31-39.6,50.27-11.62,81.44,40.65,42.95,118.28,49.91,174.82,51.38,18.12.3,36.38-.14,54.45-1.51,3.31-.3,6.43.68,8.9,2.53,0,0,2.57,1.89,2.57,1.89l2.74,1.95c116.7,79.87,279.75,126.73,384.17,2.64h0ZM889.93,891.12c-85.46,101.08-208.84,102.9-323.44,53.72-35.49-15.17-69.48-33.82-100.71-56.5,0,0,8.9,2.53,8.9,2.53,0,0,0,0,0,0-1.88.16-5.48.48-7.35.6-73.93,4.34-188.03-2.53-239.38-62.65-22.41-26.82-29.56-59.63-4.6-87.45,25.02-27.46,68.04-42.42,104.28-45.63,0,0,0,0,0,0,0,0,.09.97.09.97-17.26,1.59-34.04,4.42-50.88,7.56-42.93,7.43-87.71,19.51-131.39,9.33-18.49-4.41-36.3-14.65-48.98-29.03-9.34-10.37-18.03-21.95-24.07-34.88-22.39-46.8,7.69-91.29,53.11-106.93,8.81-2.95,17.88-4.91,27.23-4.82,0,0,.02,4.72.02,4.72-28.58-.32-55.17-12.24-79.18-26.89-84.37-51.52-85.11-136.04-29.83-210.76,4.06-5.43,8.36-10.73,12.98-15.73,0,0,1.08-1.14,1.08-1.15,0,0-.86,16.23-.86,16.23C-5.31,222.52-14.36,117.99,19.28,22.41,27.24-.57,57.36-7.57,74.88,9.41c3.43,3.3,5.94,7.15,7.79,11.41,0,0,.32.73.32.73,0,0,1.29,2.9,1.29,2.9,3.49,7.72,7.19,15.36,11.08,22.91,70.77,137.53,200.95,237.27,344.6,290.12,40.22,15.4,82.13,26.39,123.94,36.76,59.88,15.99,118.32,37.42,172.8,67.43,93.77,51,178.34,133.97,200.94,241.81,15.52,71.45.55,151.32-47.73,207.65h0Z"/><path fill="#090c9b" d="M46.58,13.18c-6.73,1.47-12.83,6.14-15.49,13.9C10.06,88.24-8.29,195.77,67.12,296.77c0,0-152.51,164.63,86.42,243.52,0,0-128.28,43.74-49.49,136.55,50.53,59.51,144.6,15.75,223.69,19.38,0,0-155.5,35.16-98.85,117.59,47.96,69.78,156.33,63.81,229.9,66.41,4.98.18,10,.36,14.81,1.62,6.61,1.74,12.5,5.43,18.33,9,51.51,31.65,106.96,58.8,166.58,68.81,59.62,10,124.18,1.33,173.57-33.53-103.92,12.63-212.85-26.28-285.25-101.89-2.97-3.11-6.11-6.4-10.25-7.56-3.79-1.06-7.82-.14-11.66.75-45.97,10.69-93.72,17.83-140.32,10.32-18.81-3.03-37.98-8.85-51.87-21.89-27.34-25.65-16.21-76.54,11.61-97.93,1.81-1.39,3.7-2.69,5.64-3.9,10.39-6.49,7.76-22.37-4.12-25.37-39.57-10-99.43-22.8-152.55-24.68-74.68-2.63-54.38-58.37-11.49-94.8,11.48-9.75,10.34-27.83-2.2-36.15-43-28.52-118.9-85.74-115.65-132.4,2.5-35.95,21.25-57.89,37.5-70.32,13.15-10.06,17.55-27.92,10.91-43.08C90.76,227.92,50.69,122.76,46.58,13.18Z" opacity=".25"/><path fill="#68c43b" d="M2044.52,752.69c-162.85,115.63-554.99,411.22-656.66,644.2-121.41,278.24-394.88,537.47-649.02,630.42-30.19,11.04-63.92,5.92-89.66-13.35-103.32-77.38-376.92-301.92-506.1-597.07-11.3-25.81-10.2-53.15-.01-76.32,5.34-10.1,8.8-15.69,9.29-16.49.04-.06.06-.1.06-.1,14.92-21.26,38.53-36.64,67.26-39.97,92.04-10.71,218.56-45.74,316.11-149.96,168.41-179.91,414.02-845.36,972.56-1044.5,31.28-11.15,66.13-5.24,91.93,15.67,90.66,73.43,312.02,266.64,469.81,519.14,2.48,3.95,4.62,8.03,6.45,12.18,18,40.82,5.36,89.6-32.03,116.14Z"/><path fill="#fff" d="M152.73,1387.81c5.32-10,8.76-15.53,9.24-16.32.04-.06.06-.1.06-.1,14.84-21.04,38.33-36.24,66.91-39.55,91.56-10.59,217.44-45.25,314.48-148.36,167.54-178,411.88-836.35,967.54-1033.37,31.12-11.03,65.79-5.18,91.45,15.51,90.19,72.65,310.41,263.8,467.38,513.61,2.46,3.91,4.6,7.94,6.42,12.05,1.68,3.79,3.09,7.65,4.24,11.55,6.52-21.39,5.5-44.93-3.92-66.29-1.83-4.16-3.97-8.23-6.45-12.18-157.79-252.51-379.15-445.71-469.81-519.14-25.8-20.91-60.65-26.82-91.93-15.67-558.54,199.14-804.15,864.59-972.56,1044.5-97.55,104.22-224.08,139.25-316.11,149.96-28.73,3.34-52.34,18.71-67.26,39.97,0,0-.02.03-.06.1-.48.8-3.94,6.39-9.29,16.49-10.19,23.17-11.29,50.51.01,76.32.58,1.32,1.17,2.64,1.75,3.96.59-11.51,3.31-22.7,7.89-33.04Z" opacity=".5"/><path fill="#069107" d="M1871.52,682.71c0-35.45,21.4-66.03,52.28-80.09,12.85-5.85,16.85-22.18,8.5-33.57-100.07-136.36-213.24-249.15-297.07-324.71-9.75-8.79-25.05-7.43-32.85,3.13-16.43,22.22-43.19,36.68-73.4,36.68-36.97,0-68.76-21.64-82.8-52.66-5.33-11.77-19.66-16.42-31.08-10.38-120.54,63.81-233.73,157.03-343.27,282.31-127.45,145.76-227.85,310.38-308.51,442.67-64.79,106.24-115.97,190.17-166.95,244.64-74.5,79.59-162.54,124.59-243.49,149.73-10.09,3.13-16.66,12.87-15.67,23.39.26,2.72.39,5.47.39,8.26,0,36.67-22.88,68.11-55.47,81.47-12.58,5.16-17.89,20.09-11.03,31.83,49.64,85,114.89,170.26,194.9,254.58,52.34,55.15,103.84,102.17,147.28,139.06,10.02,8.51,25.07,6.49,32.78-4.16,16.38-22.64,43.4-37.43,73.95-37.43,35.05,0,65.45,19.46,80.47,47.91,5.81,11,19.67,14.89,30.57,8.88,138.51-76.38,257.35-188.83,350.65-315.59,82.51-112.09,137.45-240.49,216.83-353.48,67.82-96.54,151.83-177.72,239.37-256.17,84.37-75.59,171.38-145.04,247.12-202.28,9.86-7.45,11.87-21.51,4.37-31.33-11.22-14.71-17.86-32.95-17.86-52.7Z"/><ellipse cx="1093.79" cy="1045.18" fill="#68c43b" rx="273.61" ry="339.86"/><ellipse cx="681.22" cy="1501.91" fill="#68c43b" rx="119.57" ry="152.42" transform="rotate(-46.93 681.177 1501.872)"/><ellipse cx="1490.2" cy="607.84" fill="#68c43b" rx="119.57" ry="152.42" transform="rotate(-46.93 1490.138 607.849)"/><path fill="#68c43b" d="M2060.24,1001.35c-123.12,70.02-388.21,243.21-546.34,511.87-211.13,358.71-639.85,736.8-829.44,689.41-152.5-38.12-458.33-426.12-572.15-576.47-29.63-39.15-39.25-89.83-26.26-137.17,20.04-73.02,44.09-123.94,57.04-148.42-10.19,23.17-11.29,50.51.01,76.32,129.18,295.15,402.77,519.69,506.1,597.07,25.73,19.27,59.46,24.39,89.66,13.35,254.14-92.95,527.61-352.18,649.02-630.42,101.67-232.98,493.81-528.57,656.66-644.2,37.39-26.54,50.02-75.33,32.03-116.14,36.71,56.54,47.27,168.59,49.96,246.21,1.69,48.76-23.85,94.47-66.27,118.59Z"/><path fill="#090c9b" d="M1619.46,1168.52c-50.44,75.76-106.29,147.87-163.12,218.89,0,0-11.46,14.12-11.46,14.12l.88-1.22-10.79,17.13c-43.43,68.28-88.54,135.91-136.3,201.26-12.03,16.38-24.17,32.63-36.84,48.56,9.01-18.25,18.52-36.16,28.2-54.04,41.97-77,87.58-152.39,134.77-226.29,61.96-75.23,125.91-149.24,194.66-218.41h0Z"/><path fill="#090c9b" d="M706.29,2045.59c-22.91,0-45.57-7.37-64.6-21.62-48.78-36.53-145.47-113.46-244.93-218.27-119.65-126.08-208.85-255.21-265.13-383.79-12.22-27.91-12.22-58.58,0-86.36.12-.28.25-.55.39-.81,3.45-6.52,6.76-12.4,9.58-17.02l.08-.13c.09-.15.18-.29.28-.44.11-.17.12-.18.23-.34,17.66-25.17,45.38-41.65,76.05-45.21,87.9-10.23,212.76-43.87,308.43-146.08,44.29-47.31,95.66-131.56,155.15-229.11,82.56-135.39,185.31-303.89,318.15-455.8,73.14-83.64,146.51-152.58,224.32-210.76,88.68-66.31,182.84-117.47,279.87-152.06,35.18-12.54,75.03-5.74,104,17.74,89.01,72.1,313.25,267.33,472.54,522.23,2.74,4.37,5.19,9.01,7.29,13.77,20.56,46.62,5.32,101.87-36.23,131.37h0c-162.76,115.56-552.14,409.15-652.44,639-30.04,68.85-69.81,137.86-118.2,205.11-46.68,64.88-100.28,126.65-159.32,183.58-118.46,114.24-252.94,202.48-378.67,248.47-12,4.39-24.46,6.54-36.85,6.54ZM154.34,1346c-9.19,21.2-9.13,44.58.19,65.87,126.95,290.06,393.45,510.68,502.14,592.08,22.52,16.87,51.63,21.21,77.87,11.61,254.91-93.23,524.85-355.53,641.86-623.68,44.69-102.4,148.48-227.03,308.5-370.41,127.86-114.57,262.2-214.94,352.38-278.98h0c31.92-22.66,43.62-65.09,27.82-100.91-1.62-3.67-3.5-7.23-5.61-10.59-157.29-251.72-379.04-444.76-467.08-516.07-22.24-18.03-52.84-23.24-79.86-13.61-404.58,144.25-648.19,543.74-809.39,808.09-60.21,98.73-112.2,184-158.24,233.18-100.85,107.74-231.75,143.12-323.8,153.83-23.83,2.77-44.52,15.01-58.29,34.47-2.44,4.01-5.45,9.35-8.5,15.11Z"/><path fill="#090c9b" d="M820.05,1909.56c-3.37,0-6.75-.48-10.01-1.46-8.96-2.68-16.28-8.68-20.62-16.89-13.43-25.44-40.03-41.25-69.42-41.25-25.35,0-49.21,12.06-63.82,32.25-5.76,7.96-14.63,13.2-24.34,14.38-9.59,1.15-19.3-1.76-26.66-8.01-52.71-44.77-102.59-91.86-148.25-139.98-80.42-84.74-146.58-171.17-196.63-256.88-5.04-8.64-6.1-19.02-2.89-28.49,3.25-9.61,10.53-17.34,19.97-21.21,28.98-11.89,47.71-39.33,47.71-69.91,0-2.37-.11-4.75-.33-7.08-1.55-16.28,8.72-31.64,24.4-36.51,94.58-29.38,174.67-78.61,238.07-146.33,50.09-53.52,100.96-136.94,165.37-242.54,80.93-132.73,181.6-297.84,309.81-444.46,111.2-127.18,224.65-220.44,346.83-285.13,8.57-4.54,18.75-5.34,27.93-2.2,9.18,3.14,16.42,9.7,20.39,18.47,12.46,27.52,40.49,45.31,71.41,45.31,25.03,0,48.71-11.82,63.35-31.61,5.77-7.8,14.64-12.83,24.33-13.81,9.81-.98,19.62,2.23,26.94,8.83,79.65,71.8,196.14,186.74,298.77,326.6,6.28,8.56,8.35,19.36,5.67,29.63-2.64,10.12-9.59,18.4-19.06,22.71-27.31,12.43-44.96,39.4-44.96,68.71,0,16.4,5.29,32,15.3,45.12,5.63,7.38,8.04,16.53,6.78,25.75-1.27,9.27-6.08,17.49-13.55,23.13-90.22,68.17-173.09,136-246.32,201.61-82.75,74.15-168.79,156.25-237.49,254.04-37.27,53.05-69.81,110.78-101.28,166.62-35.33,62.69-71.86,127.51-115.71,187.08-100.13,136.04-222.77,246.39-354.68,319.12-5.23,2.88-11.12,4.36-17.03,4.36ZM720,1824.96c38.68,0,73.75,20.91,91.53,54.57,1.18,2.23,3.19,3.87,5.67,4.61,2.63.78,5.4.49,7.81-.84,128.76-71,248.62-178.91,346.62-312.05,42.95-58.35,79.11-122.5,114.07-184.54,31.77-56.37,64.62-114.66,102.6-168.72,70.14-99.85,157.41-183.15,241.26-258.29,73.75-66.08,157.16-134.36,247.93-202.94,2.12-1.61,3.49-3.94,3.85-6.58.35-2.58-.32-5.14-1.88-7.2-13.36-17.51-20.42-38.36-20.42-60.28,0-39.08,23.39-74.99,59.6-91.47,3.55-1.62,4.8-4.62,5.23-6.27.77-2.95.18-6.06-1.63-8.53-101.39-138.16-216.58-251.81-295.36-322.82-2.12-1.91-4.85-2.81-7.7-2.52-1.58.16-4.56.86-6.73,3.8-19.33,26.14-50.53,41.75-83.45,41.75-40.72,0-77.69-23.55-94.19-60-1.1-2.42-3.12-4.24-5.7-5.12-2.72-.93-5.61-.7-8.15.64-119.43,63.23-230.55,154.65-339.71,279.49-126.81,145.01-226.86,309.1-307.25,440.95-65.19,106.9-116.65,191.28-168.5,246.68-66.4,70.93-150.14,122.45-248.91,153.13-4.45,1.38-7.36,5.7-6.93,10.27.3,3.11.45,6.29.45,9.44,0,40.77-24.82,77.29-63.22,93.04-2.74,1.12-4.85,3.35-5.78,6.1-.52,1.54-1.11,4.6.8,7.87,49.09,84.05,114.08,168.93,193.18,252.28,45.05,47.47,94.27,93.95,146.3,138.13,2.09,1.78,4.75,2.57,7.48,2.25,2.85-.34,5.37-1.84,7.08-4.21,19.3-26.67,50.73-42.6,84.08-42.6Z"/><path fill="#090c9b" d="M719.49,2219.19c-13.55,0-26.25-1.47-38.07-4.43-68.15-17.04-171.37-101.1-306.79-249.86-111.44-122.42-218.44-260.05-272.3-331.19-15.68-20.71-26.55-45.17-31.43-70.71-4.87-25.5-3.81-52.23,3.08-77.31,20.45-74.54,45.15-126.57,58.04-150.95,3.15-5.95,10.43-8.34,16.49-5.41,6.06,2.93,8.71,10.13,6,16.29-9.37,21.31-9.36,44.84.02,66.27,126.95,290.06,393.45,510.69,502.14,592.08,22.52,16.87,51.63,21.21,77.87,11.61,254.91-93.23,524.85-355.53,641.86-623.68,44.69-102.4,148.48-227.03,308.5-370.41,127.86-114.57,262.2-214.94,352.38-278.98,31.92-22.66,43.62-65.09,27.82-100.91-2.63-5.96-.24-12.94,5.49-16.04,5.73-3.1,12.88-1.27,16.43,4.19,37.73,58.11,49.08,169.43,51.97,252.59,1.86,53.61-25.95,103.38-72.58,129.89-109.88,62.49-382.63,237.01-541.75,507.35-102.46,174.08-261.52,361.07-425.48,500.18-81.09,68.81-160.4,123.04-229.33,156.83-57.85,28.36-108.23,42.61-150.36,42.61ZM126.4,1407.24c-9.28,23.41-19.22,51.9-28.31,85.05-11.9,43.38-2.87,90.6,24.17,126.32,53.6,70.81,160.07,207.76,270.85,329.45,60.38,66.33,114.79,120.17,161.7,160.02,54.51,46.31,99.14,74.03,132.67,82.41,42.09,10.52,101.34-2.06,171.36-36.38,67.11-32.89,144.62-85.95,224.16-153.44,161.94-137.4,318.99-322,420.11-493.8,69.59-118.23,166.83-230.49,289.01-333.64,101.38-85.6,198.4-146.63,261.93-182.76h0c38.52-21.9,61.49-63.01,59.96-107.29-2.46-70.78-10.04-130.62-22-175.69-6.89,21.79-20.64,41.45-40.26,55.38-162.75,115.56-552.14,409.15-652.44,639-30.04,68.85-69.81,137.86-118.2,205.12-46.68,64.88-100.28,126.65-159.31,183.58-118.46,114.24-252.94,202.48-378.67,248.47-34.21,12.51-72.13,6.87-101.44-15.08-48.78-36.53-145.47-113.46-244.93-218.27-119.65-126.08-208.85-255.21-265.13-383.79-2.11-4.81-3.85-9.71-5.23-14.66Z"/><path fill="#090c9b" d="M719.39,2177.59c-10.08,0-19.46-1.07-27.88-3.17-41.29-10.32-124.45-59.91-286.13-237.51-110.34-121.21-216.46-257.72-269.89-328.3-23.95-31.64-31.95-73.48-21.4-111.92,4.31-15.72,8.82-30.38,13.34-43.9,134.65,287.09,396.02,503.35,504.32,584.45,21.44,16.05,47.95,24.89,74.65,24.89,14.52,0,28.8-2.53,42.42-7.51,268.86-98.33,542.6-364.02,665.69-646.1,22.48-51.51,62.17-110.5,117.98-175.34,48.19-55.98,108.8-116.79,180.16-180.73,133.07-119.24,275.59-224.13,348.7-276.04,9.07-6.44,17.05-13.93,23.87-22.23,6.35,36.71,10.51,80.35,12.21,129.59,1.32,38.09-18.44,73.46-51.58,92.3-140.09,79.67-398.74,253.47-557.03,522.4-47.86,81.31-107.32,164.42-176.73,247.03-66.34,78.95-140.05,154.83-213.16,219.44-73.79,65.21-147.09,119.01-211.97,155.59-66.21,37.33-124.16,57.06-167.59,57.06Z" opacity=".25"/><path fill="#090c9b" d="M143.07,1353.07c-1.83,0-3.68-.4-5.43-1.25-6.06-2.93-8.71-10.12-6-16.28,2.86-6.52,6.39-12.79,10.49-18.64,3.87-5.52,11.43-6.98,17.08-3.29,5.65,3.69,7.35,11.2,3.84,16.96l-.1.17c-2.52,4.12-5.65,9.69-8.81,15.67-2.24,4.23-6.57,6.66-11.06,6.66Z"/><path fill="#fff" d="M2398.54,1977.82c0,6.89-3.25,13.84-10.27,18.11-55.24,33.62-156.36,74.55-271.15,22.5,0,0-128.19,184.2-256.37-32.32,0,0-15.29,134.67-122.8,77.56-68.94-36.62-46.32-137.88-66.79-214.36,0,0-1.08,159.43-93.72,121.72-92.64-37.7-115.26-225.13-115.26-225.13,0,0-194.61-165.54-123.64-340.6,7.52-18.56,18.03-37.23,32.08-55.81,97.09-128.5,377.02-156.19,563.37,226.21,139.92,287.12,350.88,361.69,447.33,381.04,11.05,2.22,17.21,11.6,17.21,21.08Z"/><path fill="#090c9b" d="M1360.5,1341.84c44.7-59.21,119.51-90.93,192.63-91.05,110.2-.98,209.31,63.86,279.2,144.55,40.97,46.8,74.4,99.3,102.84,154.38,19.07,38.63,38.78,77.21,62.43,113.21,82.36,129.01,207.66,234.85,357.13,274.55,8.2,2.18,16.46,4.16,24.75,5.92l3.11.64s.78.16.78.16c4.56.9,8.87,2.53,12.82,5.17,20.16,13.38,20.12,44.3-.81,57.1-86.19,53.3-190.19,66.83-283.48,23.53,0,0,15.67-4.31,15.67-4.31,0,0-.89,1.3-.89,1.3-3.89,5.58-8.15,10.91-12.58,16.04-61.18,69.95-143.79,87.39-212.26,15.95-19.45-20.32-36.78-43.75-43.2-71.6,0,0,4.62-.99,4.61-.99,2.08,9.12,2.11,18.4,1.11,27.63-5.52,47.65-42.59,86.64-93.09,74.76-13.93-3.13-27.09-9.15-39.22-16.05-16.76-9.31-30.57-24.51-38.83-41.63-19.3-40.48-17.08-86.82-19-130.34-.54-17.12-1.37-34.12-3.5-51.32,0,0,.96-.12.96-.12,0,0,0,0,0,0,4.61,36.07-.77,81.29-22.26,111.63-21.8,30.32-55.45,30.38-86.41,14.22-70.37-37.55-101.86-150.12-112.93-224.02,0,0-.48-3.72-.48-3.72,0,0,4.38,8.15,4.38,8.15,0,0-1.5-1.3-1.5-1.3,0,0-1.39-1.24-1.39-1.24-114.86-106.27-198.63-269.72-90.58-411.2h0ZM1380.76,1357.15c-98.84,128.63-18.29,277.68,84.78,374.71,0,0,2.49,2.26,2.49,2.26,0,0,2.39,2.11,2.39,2.11,2.51,2.16,3.99,5.11,4.38,8.15,2.54,17.96,6,35.87,10.17,53.52,13.5,54.88,36.97,129.29,87.59,159.78,36.53,20.66,61.29,8.42,77.07-28.77,10.58-25.4,15.75-52.23,21.05-79.6-.04-.26.15-.5.41-.54.27-.04.49.17.55.41,13.21,32.17,15.73,67.81,20.38,101.72,5.31,38.47,12.37,83.92,50.33,102.85,19.11,9.71,43.13,16.05,62.98,5.95,19.93-10.39,30.29-31.83,40.85-51.08,3.86-7.33,7.77-14.99,12.1-22.79-.31-1.09.32-2.22,1.41-2.53,1.3-.47,2.34.84,3.2,1.54,15.31,13.49,27.71,29.09,41.18,44.09,20.78,22.74,47.1,43.39,77.87,48.19,43.78,6.76,83.72-21.15,112.52-51.75,3.8-4.04,7.47-8.23,10.94-12.55,0,0,1.3-1.65,1.3-1.65,3.56-5.1,10.21-6.78,15.67-4.31,30.3,13.75,62.97,22.06,96.2,23.42,57.63,2.54,115.63-15.65,164.4-46.14,5.26-4.56,2.87-13.87-4.23-14.97-10.27-2.07-20.47-4.47-30.58-7.16-120.73-32.25-227.79-105.78-308.51-200.18-49.01-56.99-88.78-121.38-121.22-188.99-13.42-26.86-28.06-53.19-44.14-78.53-54.13-85.11-127.26-164.24-223.27-200.3-91.58-36.06-208.95-17.97-270.26,63.13h0Z"/><path fill="#090c9b" d="M83.21,1040.9c1.93,0,1.93-3,0-3s-1.93,3,0,3h0Z"/><path fill="#090c9b" d="M2131.57,784.85c-.06,1.48-.25,3.09-.47,4.53-2.1,12.92-7.15,25.15-13.43,36.45-19.77,35.04-51.34,60.89-85.12,81.34-73.31,41.51-143.26,88.94-210.57,139.62,64.19-54.85,131.29-106.67,202.14-152.78,26.41-18.22,51.58-40.76,67.96-68.34,7.2-12.47,13.29-26.16,14.5-40.57-.38-6.64,5.43-13.17,12.68-12.94,6.9.1,12.42,5.77,12.32,12.67h0Z"/><path fill="#090c9b" d="M1284.45,1698.5c-37.61,73.95-111.78,162.69-184.42,203.66-8.61,4.86-17.8,9.28-27.01,12.84-3.15,1.09-6.25,2.24-9.4,3.24,32.42-21.92,61.11-48.22,88.63-75.82,46.13-46.16,87.91-95.78,132.19-143.93h0Z"/><path fill="#090c9b" d="M103.75,1468.43c.99,11.78,3.52,23.67,6.34,35.17,4.46,17.76,10.45,35.76,17.53,52.77,4.49,11.07,10.32,23.43,15.76,34.04,2.48,4.91,6.37,11.72,8.98,16.59-3.43-4.43-8.38-10.51-11.63-14.93-5.27-7.07-11.5-16-16.37-23.35-4.8-7.46-10.5-16.81-14.87-24.53-11.68-21.16-22.15-43.52-29.09-66.8-.61-2.08-1.15-4.05-1.62-6.28-1.47-6.81,2.86-13.52,9.67-14.99,7.73-1.77,15.35,4.41,15.28,12.32h0Z"/><path fill="#090c9b" d="M535.8,1997.96c38.84,26.53,75.29,54.91,116.34,77.31,19.05,10.42,38.99,19.35,60.12,24.73,2.84.67,5.75,1.24,8.59,1.94,2.95.52,5.84.96,8.84,1.59-5.84,1.68-11.93,2.72-18,3.18-66.5,3.98-142.49-54.23-175.9-108.75h0Z"/><path fill="#090c9b" d="M295.59,1748.05c29.61,31.24,59.11,61.6,89.68,91.68,9.52,9.23,19.51,18.9,28.96,28.2,11.43,11.11,22.86,21.88,33.78,33.62-4.08-2.09-8.1-4.29-12.06-6.59-53.58-30.82-114.45-90.42-140.36-146.91h0Z"/><path fill="#090c9b" d="M1769.19,1098.5c-7.66,17.94-22.59,33.22-38.19,44.37-5.44,3.69-11.12,7.13-17.82,9.49,2.63-6.61,6.28-12.15,10.18-17.44,11.73-15.14,27.62-29.48,45.83-36.42h0Z"/><path fill="#090c9b" d="M1119.64,1925.79c-12.28,25.77-31.61,47.68-53.09,66.26-17.59,15.09-37.51,27.62-59.09,36.14-5.05,1.77-10.14,3.46-15.29,4.86,4.22-3.32,8.49-6.34,12.88-9.34,8.36-6.17,16.79-12.4,25.05-18.69,3.91-3.15,8.24-6.55,12.17-9.62,27.09-21.91,52.05-45.44,77.38-69.61h0Z"/><path fill="#090c9b" d="M992.53,1983.96c-11.12,11.4-23.51,21.47-36.15,31.1-31.79,23.68-66.17,44.26-103.11,58.84-7.31,2.9-15.12,5.5-22.68,7.62,26.11-18.09,52.77-34.25,79.66-50.86,27.03-16.35,53.84-32.59,82.28-46.7h0Z"/><path fill="#090c9b" d="M1093.79,1397.54c-38.98,0-76.77-9.47-112.31-28.14-34.1-17.92-64.69-43.51-90.89-76.06-53.46-66.4-82.9-154.53-82.9-248.15s29.44-181.75,82.9-248.15c26.21-32.55,56.79-58.14,90.89-76.06,35.54-18.67,73.33-28.14,112.31-28.14s76.77,9.47,112.31,28.14c34.1,17.92,64.69,43.51,90.89,76.06,53.46,66.4,82.9,154.53,82.9,248.15s-29.44,181.75-82.9,248.15c-26.21,32.55-56.79,58.14-90.89,76.06-35.54,18.67-73.33,28.14-112.31,28.14ZM1093.79,717.83c-143.98,0-261.11,146.85-261.11,327.36s117.13,327.36,261.11,327.36,261.11-146.85,261.11-327.36-117.13-327.36-261.11-327.36Z"/><path fill="#090c9b" d="M1099.24,1017.11l-3.52-.32-62.58-60.48c-1.22-1.18-1.01-3.35.47-4.7,19.29-17.57,36.96-25.61,48.16-29.95,1.91-.74,2.99-2.91,2.31-4.61l-10.23-25.67c-.56-1.4-2.15-1.98-3.72-1.37-16.06,6.3-37.71,19.35-59.4,40-1.35,1.29-3.3,1.46-4.43.37l-30.36-29.34-.11-.11-21.03,21.76.11.11h0c-1.34,1.38-1.48,3.42-.31,4.55l30.27,29.25c1,.97,1.04,2.63.12,4-26.8,39.91-27.17,81.27-.54,107.01,26.76,25.86,62.4,19.36,108.82-3.31,1.22-.6,2.56-.47,3.41.35l71.64,69.23c1.22,1.18,1.01,3.37-.49,4.72-18.42,16.56-39.25,27.98-57.48,34.09-2.01.67-3.19,2.96-2.45,4.71l10.84,25.65c.54,1.29,1.97,1.85,3.45,1.4,20.73-6.28,47.26-22.79,68.65-43.57,1.35-1.31,3.31-1.5,4.44-.4l29.67,28.68c1.16,1.13,3.19.92,4.53-.47l19.39-20.07c1.34-1.38,1.48-3.42.31-4.55l-30.96-29.91c-1.02-.99-1.04-2.7-.07-4.07,32.11-45.69,28.17-90.43,2.16-115.56-29.84-28.84-67.31-24.92-121.11,2.58ZM1013.53,1029.5c-9.42-9.11-14.31-24.89-6.06-44.13.98-2.29,3.82-3.24,5.37-1.74l47.42,45.83c1.65,1.6.58,4.76-1.9,5.56-20.21,6.54-33.66,5.27-44.83-5.52ZM1188.97,1106.92l-57.49-55.56c-1.63-1.58-.6-4.69,1.85-5.55,24.15-8.48,42.22-7.58,55.89,5.63,13.57,13.12,15.09,33.28,5.01,54-1.04,2.15-3.78,2.9-5.25,1.48Z"/><path fill="#090c9b" d="M714.31,1650.31c-4.33,0-8.73-.19-13.18-.58-39.23-3.4-78.33-21.64-110.1-51.34-31.77-29.71-52.6-67.49-58.63-106.4-6.21-40.03,3.86-76.51,28.35-102.7,24.49-26.2,60.2-38.7,100.56-35.19,39.23,3.4,78.33,21.64,110.1,51.34,31.77,29.71,52.6,67.49,58.63,106.4,6.21,40.03-3.86,76.51-28.35,102.7-21.79,23.3-52.46,35.77-87.38,35.77ZM648.34,1378.48c-27.04,0-51.81,9.13-69.33,27.88-40.32,43.13-27.27,121.08,29.1,173.77,31.86,29.78,70.84,45.22,106,45.22,27.04,0,51.81-9.13,69.33-27.88,40.32-43.13,27.27-121.08-29.1-173.77-31.86-29.78-70.84-45.22-106-45.22Z"/><path fill="#090c9b" d="M1523.29,756.24c-4.33,0-8.72-.19-13.18-.58-39.23-3.4-78.33-21.64-110.1-51.34s-52.6-67.49-58.63-106.4c-6.21-40.03,3.86-76.51,28.35-102.7,24.49-26.2,60.2-38.69,100.56-35.19,39.23,3.4,78.33,21.64,110.1,51.34,31.78,29.71,52.6,67.49,58.63,106.4,6.21,40.03-3.86,76.51-28.35,102.7-21.79,23.3-52.46,35.77-87.38,35.77ZM1457.2,484.45c-27.97,0-52.26,9.69-69.22,27.84-40.32,43.13-27.27,121.08,29.09,173.77,56.36,52.69,135.01,60.47,175.33,17.34,40.32-43.13,27.26-121.08-29.1-173.77-27.71-25.9-61.51-41.78-95.19-44.7-3.7-.32-7.34-.48-10.92-.48Z"/><path fill="#090c9b" d="M2398.54,1977.82c0,6.89-3.25,13.84-10.27,18.11-55.24,33.62-156.36,74.55-271.15,22.5,0,0-128.19,184.2-256.37-32.32,0,0-15.29,134.67-122.8,77.56-68.94-36.62-46.32-137.88-66.79-214.36,0,0-1.08,159.43-93.72,121.72-78.43-31.92-95.78-139.06-114.06-210.37-1.24-4.82-2.49-9.69-4.76-14.12-3.11-6.08-7.98-11.05-12.72-15.97-41.94-43.54-80.33-91.9-102.86-148-22.53-56.1-27.87-121.02-4.38-176.73,9.9,104.21,71.21,202.3,160.56,256.85,3.67,2.24,7.56,4.59,9.58,8.39,1.85,3.48,1.81,7.61,1.76,11.55-.61,47.2,2.63,95.36,19.94,139.28,6.99,17.72,16.77,35.2,32.48,45.99,30.9,21.22,78.24-.55,93.17-32.3.97-2.07,1.84-4.19,2.6-6.35,4.12-11.54,20.19-12.37,25.66-1.4,18.24,36.52,43.55,92.24,56.74,143.74,18.55,72.39,68.65,40.63,95.06-9.06,7.07-13.3,24.97-16.06,35.78-5.58,37.06,35.9,109.19,97.81,154.08,84.65,34.59-10.14,52.01-33.15,60.67-51.67,7.01-15,23.51-23.12,39.75-19.87,52.81,10.56,164.11,27.21,272.03,7.78Z" opacity=".25"/></svg>